<svg xmlns="http://www.w3.org/2000/svg" fill="white" height="24" viewBox="0 0 24 24" width="24" focusable="false" aria-hidden="true" style="pointer-events: none; display: inherit; width: 100%; height: 100%;"><path clip-rule="evenodd" d="M21 5c0-1.105-.895-2-2-2H5c-1.105 0-2 .895-2 2v12c0 1.105.895 2 2 2h12l3.146 3.146c.315.315.854.092.854-.353V5ZM7 9c0-.552.448-1 1-1h8c.552 0 1 .448 1 1s-.448 1-1 1H8c-.552 0-1-.448-1-1Zm1 3c-.552 0-1 .448-1 1s.448 1 1 1h5c.552 0 1-.448 1-1s-.448-1-1-1H8Z" fill-rule="evenodd"></path></svg>